<svg width="59" height="45" viewBox="0 0 59 45" fill="none" xmlns="http://www.w3.org/2000/svg">
<path d="M1.15056 0.800421C1.04034 0.717269 0.883573 0.739216 0.800421 0.84944C0.717269 0.959665 0.739216 1.11643 0.84944 1.19958L1.15056 0.800421ZM57.8494 44.1996C57.9597 44.2827 58.1164 44.2608 58.1996 44.1506C58.2827 44.0403 58.2608 43.8836 58.1506 43.8004L57.8494 44.1996ZM2.43277 2.39402C2.543 2.47718 2.69976 2.45523 2.78291 2.345C2.86606 2.23478 2.84412 2.07802 2.73389 1.99487L2.43277 2.39402ZM5.90056 4.38375C5.79034 4.3006 5.63357 4.32255 5.55042 4.43277C5.46727 4.543 5.48922 4.69976 5.59944 4.78291L5.90056 4.38375ZM8.76611 7.1718C8.87633 7.25495 9.03309 7.23301 9.11625 7.12278C9.1994 7.01256 9.17745 6.8558 9.06723 6.77264L8.76611 7.1718ZM12.2339 9.16153C12.1237 9.07838 11.9669 9.10033 11.8838 9.21055C11.8006 9.32078 11.8225 9.47754 11.9328 9.56069L12.2339 9.16153ZM15.0994 11.9496C15.2097 12.0327 15.3664 12.0108 15.4496 11.9006C15.5327 11.7903 15.5108 11.6336 15.4006 11.5504L15.0994 11.9496ZM18.5672 13.9393C18.457 13.8562 18.3002 13.8781 18.2171 13.9883C18.1339 14.0986 18.1559 14.2553 18.2661 14.3385L18.5672 13.9393ZM21.4328 16.7274C21.543 16.8105 21.6998 16.7886 21.7829 16.6783C21.8661 16.5681 21.8441 16.4114 21.7339 16.3282L21.4328 16.7274ZM24.9006 18.7171C24.7903 18.6339 24.6336 18.6559 24.5504 18.7661C24.4673 18.8763 24.4892 19.0331 24.5994 19.1162L24.9006 18.7171ZM27.7661 21.5051C27.8763 21.5883 28.0331 21.5663 28.1162 21.4561C28.1994 21.3459 28.1775 21.1891 28.0672 21.106L27.7661 21.5051ZM31.2339 23.4949C31.1237 23.4117 30.9669 23.4337 30.8838 23.5439C30.8006 23.6541 30.8226 23.8109 30.9328 23.894L31.2339 23.4949ZM34.0994 26.2829C34.2097 26.3661 34.3664 26.3441 34.4496 26.2339C34.5327 26.1237 34.5108 25.9669 34.4006 25.8838L34.0994 26.2829ZM37.5672 28.2726C37.457 28.1895 37.3002 28.2114 37.2171 28.3217C37.1339 28.4319 37.1559 28.5887 37.2661 28.6718L37.5672 28.2726ZM40.4328 31.0607C40.543 31.1438 40.6998 31.1219 40.7829 31.0117C40.8661 30.9014 40.8441 30.7447 40.7339 30.6615L40.4328 31.0607ZM43.9006 33.0504C43.7903 32.9673 43.6336 32.9892 43.5504 33.0994C43.4673 33.2097 43.4892 33.3664 43.5994 33.4496L43.9006 33.0504ZM46.7661 35.8385C46.8763 35.9216 47.0331 35.8997 47.1162 35.7895C47.1994 35.6792 47.1775 35.5225 47.0672 35.4393L46.7661 35.8385ZM50.2339 37.8282C50.1237 37.745 49.9669 37.767 49.8838 37.8772C49.8006 37.9874 49.8225 38.1442 49.9328 38.2274L50.2339 37.8282ZM53.0994 40.6162C53.2097 40.6994 53.3664 40.6775 53.4496 40.5672C53.5327 40.457 53.5108 40.3002 53.4006 40.2171L53.0994 40.6162ZM56.5672 42.606C56.457 42.5228 56.3002 42.5448 56.2171 42.655C56.1339 42.7652 56.1559 42.922 56.2661 43.0051L56.5672 42.606ZM0.84944 1.19958L2.43277 2.39402L2.73389 1.99487L1.15056 0.800421L0.84944 1.19958ZM5.59944 4.78291L8.76611 7.1718L9.06723 6.77264L5.90056 4.38375L5.59944 4.78291ZM11.9328 9.56069L15.0994 11.9496L15.4006 11.5504L12.2339 9.16153L11.9328 9.56069ZM18.2661 14.3385L21.4328 16.7274L21.7339 16.3282L18.5672 13.9393L18.2661 14.3385ZM24.5994 19.1162L27.7661 21.5051L28.0672 21.106L24.9006 18.7171L24.5994 19.1162ZM30.9328 23.894L34.0994 26.2829L34.4006 25.8838L31.2339 23.4949L30.9328 23.894ZM37.2661 28.6718L40.4328 31.0607L40.7339 30.6615L37.5672 28.2726L37.2661 28.6718ZM43.5994 33.4496L46.7661 35.8385L47.0672 35.4393L43.9006 33.0504L43.5994 33.4496ZM49.9328 38.2274L53.0994 40.6162L53.4006 40.2171L50.2339 37.8282L49.9328 38.2274ZM56.2661 43.0051L57.8494 44.1996L58.1506 43.8004L56.5672 42.606L56.2661 43.0051ZM1.30112 0.600842C1.08067 0.434538 0.767145 0.478432 0.600842 0.698881C0.434538 0.91933 0.478432 1.23285 0.698881 1.39916L1.30112 0.600842ZM57.6989 44.3992C57.9193 44.5655 58.2329 44.5216 58.3992 44.3011C58.5655 44.0807 58.5216 43.7672 58.3011 43.6008L57.6989 44.3992ZM2.28221 2.5936C2.50266 2.75991 2.81619 2.71601 2.98249 2.49556C3.1488 2.27511 3.1049 1.96159 2.88445 1.79529L2.28221 2.5936ZM6.05112 4.18418C5.83067 4.01787 5.51715 4.06177 5.35084 4.28221C5.18454 4.50266 5.22843 4.81619 5.44888 4.98249L6.05112 4.18418ZM8.61555 7.37138C8.836 7.53768 9.14952 7.49379 9.31583 7.27334C9.48213 7.05289 9.43824 6.73937 9.21779 6.57306L8.61555 7.37138ZM12.3845 8.96195C12.164 8.79565 11.8505 8.83954 11.6842 9.05999C11.5179 9.28044 11.5618 9.59397 11.7822 9.76027L12.3845 8.96195ZM14.9489 12.1492C15.1693 12.3155 15.4829 12.2716 15.6492 12.0511C15.8155 11.8307 15.7716 11.5171 15.5511 11.3508L14.9489 12.1492ZM18.7178 13.7397C18.4973 13.5734 18.1838 13.6173 18.0175 13.8378C17.8512 14.0582 17.8951 14.3717 18.1155 14.538L18.7178 13.7397ZM21.2822 16.9269C21.5027 17.0932 21.8162 17.0493 21.9825 16.8289C22.1488 16.6084 22.1049 16.2949 21.8845 16.1286L21.2822 16.9269ZM25.0511 18.5175C24.8307 18.3512 24.5171 18.3951 24.3508 18.6155C24.1845 18.836 24.2284 19.1495 24.4489 19.3158L25.0511 18.5175ZM27.6155 21.7047C27.836 21.871 28.1495 21.8271 28.3158 21.6067C28.4821 21.3862 28.4382 21.0727 28.2178 20.9064L27.6155 21.7047ZM31.3845 23.2953C31.164 23.129 30.8505 23.1729 30.6842 23.3933C30.5179 23.6138 30.5618 23.9273 30.7822 24.0936L31.3845 23.2953ZM33.9489 26.4825C34.1693 26.6488 34.4829 26.6049 34.6492 26.3845C34.8155 26.164 34.7716 25.8505 34.5511 25.6842L33.9489 26.4825ZM37.7178 28.0731C37.4973 27.9068 37.1838 27.9507 37.0175 28.1711C36.8512 28.3916 36.8951 28.7051 37.1155 28.8714L37.7178 28.0731ZM40.2822 31.2603C40.5027 31.4266 40.8162 31.3827 40.9825 31.1622C41.1488 30.9418 41.1049 30.6283 40.8845 30.462L40.2822 31.2603ZM44.0511 32.8508C43.8307 32.6845 43.5171 32.7284 43.3508 32.9489C43.1845 33.1693 43.2284 33.4829 43.4489 33.6492L44.0511 32.8508ZM46.6155 36.038C46.836 36.2044 47.1495 36.1605 47.3158 35.94C47.4821 35.7196 47.4382 35.406 47.2178 35.2397L46.6155 36.038ZM50.3845 37.6286C50.164 37.4623 49.8505 37.5062 49.6842 37.7267C49.5179 37.9471 49.5618 38.2606 49.7822 38.4269L50.3845 37.6286ZM52.9489 40.8158C53.1693 40.9821 53.4829 40.9382 53.6492 40.7178C53.8155 40.4973 53.7716 40.1838 53.5511 40.0175L52.9489 40.8158ZM56.7178 42.4064C56.4973 42.2401 56.1838 42.284 56.0175 42.5044C55.8512 42.7249 55.8951 43.0384 56.1155 43.2047L56.7178 42.4064ZM0.698881 1.39916L2.28221 2.5936L2.88445 1.79529L1.30112 0.600842L0.698881 1.39916ZM5.44888 4.98249L8.61555 7.37138L9.21779 6.57306L6.05112 4.18418L5.44888 4.98249ZM11.7822 9.76027L14.9489 12.1492L15.5511 11.3508L12.3845 8.96195L11.7822 9.76027ZM18.1155 14.538L21.2822 16.9269L21.8845 16.1286L18.7178 13.7397L18.1155 14.538ZM24.4489 19.3158L27.6155 21.7047L28.2178 20.9064L25.0511 18.5175L24.4489 19.3158ZM30.7822 24.0936L33.9489 26.4825L34.5511 25.6842L31.3845 23.2953L30.7822 24.0936ZM37.1155 28.8714L40.2822 31.2603L40.8845 30.462L37.7178 28.0731L37.1155 28.8714ZM43.4489 33.6492L46.6155 36.038L47.2178 35.2397L44.0511 32.8508L43.4489 33.6492ZM49.7822 38.4269L52.9489 40.8158L53.5511 40.0175L50.3845 37.6286L49.7822 38.4269ZM56.1155 43.2047L57.6989 44.3992L58.3011 43.6008L56.7178 42.4064L56.1155 43.2047Z" fill="url(#paint0_linear_54_291)"/>
<defs>
<linearGradient id="paint0_linear_54_291" x1="62.5" y1="46" x2="3.50004" y2="3.49995" gradientUnits="userSpaceOnUse">
<stop/>
<stop offset="1" stop-color="#FF8F6B"/>
</linearGradient>
</defs>
</svg>
