<svg width="81" height="51" viewBox="0 0 81 51" fill="none" xmlns="http://www.w3.org/2000/svg">
<path d="M80.1318 1.21245C80.2491 1.13967 80.2852 0.98556 80.2125 0.868226C80.1397 0.750892 79.9856 0.714772 79.8682 0.787548L80.1318 1.21245ZM0.868223 49.7875C0.750891 49.8603 0.714768 50.0144 0.787545 50.1318C0.860321 50.2491 1.01444 50.2852 1.13177 50.2125L0.868223 49.7875ZM78.2224 1.80838C78.1051 1.88116 78.0689 2.03527 78.1417 2.15261C78.2145 2.26994 78.3686 2.30606 78.4859 2.23328L78.2224 1.80838ZM75.1943 4.27495C75.3116 4.20217 75.3477 4.04806 75.275 3.93073C75.2022 3.81339 75.0481 3.77727 74.9307 3.85005L75.1943 4.27495ZM71.6391 5.89171C71.5217 5.96449 71.4856 6.11861 71.5584 6.23594C71.6312 6.35327 71.7853 6.38939 71.9026 6.31662L71.6391 5.89171ZM68.6109 8.35828C68.7283 8.28551 68.7644 8.13139 68.6916 8.01406C68.6188 7.89673 68.4647 7.8606 68.3474 7.93338L68.6109 8.35828ZM65.0557 9.97505C64.9384 10.0478 64.9023 10.2019 64.975 10.3193C65.0478 10.4366 65.2019 10.4727 65.3193 10.4L65.0557 9.97505ZM62.0276 12.4416C62.1449 12.3688 62.1811 12.2147 62.1083 12.0974C62.0355 11.9801 61.8814 11.9439 61.7641 12.0167L62.0276 12.4416ZM58.4724 14.0584C58.3551 14.1312 58.3189 14.2853 58.3917 14.4026C58.4645 14.5199 58.6186 14.5561 58.7359 14.4833L58.4724 14.0584ZM55.4443 16.525C55.5616 16.4522 55.5977 16.2981 55.525 16.1807C55.4522 16.0634 55.2981 16.0273 55.1807 16.1L55.4443 16.525ZM51.8891 18.1417C51.7717 18.2145 51.7356 18.3686 51.8084 18.4859C51.8812 18.6033 52.0353 18.6394 52.1526 18.5666L51.8891 18.1417ZM48.8609 20.6083C48.9783 20.5355 49.0144 20.3814 48.9416 20.2641C48.8688 20.1467 48.7147 20.1106 48.5974 20.1834L48.8609 20.6083ZM45.3057 22.225C45.1884 22.2978 45.1523 22.4519 45.225 22.5693C45.2978 22.6866 45.4519 22.7227 45.5693 22.65L45.3057 22.225ZM42.2776 24.6916C42.3949 24.6188 42.4311 24.4647 42.3583 24.3474C42.2855 24.2301 42.1314 24.1939 42.0141 24.2667L42.2776 24.6916ZM38.7224 26.3084C38.6051 26.3812 38.5689 26.5353 38.6417 26.6526C38.7145 26.7699 38.8686 26.8061 38.9859 26.7333L38.7224 26.3084ZM35.6943 28.775C35.8116 28.7022 35.8477 28.5481 35.775 28.4307C35.7022 28.3134 35.5481 28.2773 35.4307 28.35L35.6943 28.775ZM32.1391 30.3917C32.0217 30.4645 31.9856 30.6186 32.0584 30.7359C32.1312 30.8533 32.2853 30.8894 32.4026 30.8166L32.1391 30.3917ZM29.1109 32.8583C29.2283 32.7855 29.2644 32.6314 29.1916 32.5141C29.1188 32.3967 28.9647 32.3606 28.8474 32.4334L29.1109 32.8583ZM25.5557 34.4751C25.4384 34.5478 25.4023 34.7019 25.475 34.8193C25.5478 34.9366 25.7019 34.9727 25.8193 34.9L25.5557 34.4751ZM22.5276 36.9416C22.6449 36.8688 22.6811 36.7147 22.6083 36.5974C22.5355 36.4801 22.3814 36.4439 22.2641 36.5167L22.5276 36.9416ZM18.9724 38.5584C18.8551 38.6312 18.8189 38.7853 18.8917 38.9026C18.9645 39.0199 19.1186 39.0561 19.2359 38.9833L18.9724 38.5584ZM15.9443 41.0249C16.0616 40.9522 16.0977 40.7981 16.025 40.6807C15.9522 40.5634 15.7981 40.5273 15.6807 40.6L15.9443 41.0249ZM12.3891 42.6417C12.2717 42.7145 12.2356 42.8686 12.3084 42.9859C12.3812 43.1033 12.5353 43.1394 12.6526 43.0666L12.3891 42.6417ZM9.36095 45.1083C9.47828 45.0355 9.5144 44.8814 9.44163 44.7641C9.36885 44.6467 9.21473 44.6106 9.0974 44.6834L9.36095 45.1083ZM5.80574 46.725C5.68841 46.7978 5.65228 46.9519 5.72506 47.0693C5.79784 47.1866 5.95195 47.2227 6.06929 47.1499L5.80574 46.725ZM2.77762 49.1916C2.89495 49.1188 2.93108 48.9647 2.8583 48.8474C2.78552 48.73 2.63141 48.6939 2.51407 48.7667L2.77762 49.1916ZM79.8682 0.787548L78.2224 1.80838L78.4859 2.23328L80.1318 1.21245L79.8682 0.787548ZM74.9307 3.85005L71.6391 5.89171L71.9026 6.31662L75.1943 4.27495L74.9307 3.85005ZM68.3474 7.93338L65.0557 9.97505L65.3193 10.4L68.6109 8.35828L68.3474 7.93338ZM61.7641 12.0167L58.4724 14.0584L58.7359 14.4833L62.0276 12.4416L61.7641 12.0167ZM55.1807 16.1L51.8891 18.1417L52.1526 18.5666L55.4443 16.525L55.1807 16.1ZM48.5974 20.1834L45.3057 22.225L45.5693 22.65L48.8609 20.6083L48.5974 20.1834ZM42.0141 24.2667L38.7224 26.3084L38.9859 26.7333L42.2776 24.6916L42.0141 24.2667ZM35.4307 28.35L32.1391 30.3917L32.4026 30.8166L35.6943 28.775L35.4307 28.35ZM28.8474 32.4334L25.5557 34.4751L25.8193 34.9L29.1109 32.8583L28.8474 32.4334ZM22.2641 36.5167L18.9724 38.5584L19.2359 38.9833L22.5276 36.9416L22.2641 36.5167ZM15.6807 40.6L12.3891 42.6417L12.6526 43.0666L15.9443 41.0249L15.6807 40.6ZM9.0974 44.6834L5.80574 46.725L6.06929 47.1499L9.36095 45.1083L9.0974 44.6834ZM2.51407 48.7667L0.868223 49.7875L1.13177 50.2125L2.77762 49.1916L2.51407 48.7667ZM80.2635 1.4249C80.4982 1.27935 80.5705 0.97112 80.4249 0.736452C80.2793 0.501785 79.9711 0.429544 79.7365 0.575097L80.2635 1.4249ZM0.736449 49.5751C0.501778 49.7207 0.42954 50.0289 0.575093 50.2635C0.720647 50.4982 1.02887 50.5705 1.26354 50.4249L0.736449 49.5751ZM78.0906 1.59593C77.856 1.74148 77.7837 2.04971 77.9293 2.28438C78.0748 2.51905 78.383 2.59129 78.6177 2.44574L78.0906 1.59593ZM75.326 4.4874C75.5607 4.34185 75.633 4.03362 75.4874 3.79895C75.3418 3.56428 75.0336 3.49204 74.799 3.6376L75.326 4.4874ZM71.5073 5.67926C71.2726 5.82482 71.2004 6.13305 71.3459 6.36771C71.4915 6.60238 71.7997 6.67462 72.0344 6.52907L71.5073 5.67926ZM68.7427 8.57074C68.9774 8.42518 69.0496 8.11695 68.9041 7.88229C68.7585 7.64762 68.4503 7.57538 68.2156 7.72093L68.7427 8.57074ZM64.924 9.7626C64.6893 9.90815 64.617 10.2164 64.7626 10.451C64.9081 10.6857 65.2164 10.758 65.451 10.6124L64.924 9.7626ZM62.1594 12.6541C62.394 12.5085 62.4663 12.2003 62.3207 11.9656C62.1752 11.731 61.867 11.6587 61.6323 11.8043L62.1594 12.6541ZM58.3406 13.8459C58.1059 13.9915 58.0337 14.2997 58.1793 14.5344C58.3248 14.769 58.633 14.8413 58.8677 14.6957L58.3406 13.8459ZM55.576 16.7374C55.8107 16.5919 55.883 16.2836 55.7374 16.049C55.5918 15.8143 55.2836 15.742 55.049 15.8876L55.576 16.7374ZM51.7573 17.9293C51.5226 18.0748 51.4504 18.383 51.5959 18.6177C51.7415 18.8524 52.0497 18.9246 52.2844 18.7791L51.7573 17.9293ZM48.9927 20.8207C49.2274 20.6752 49.2996 20.367 49.1541 20.1323C49.0085 19.8976 48.7003 19.8254 48.4656 19.9709L48.9927 20.8207ZM45.1739 22.0126C44.9393 22.1582 44.867 22.4664 45.0126 22.701C45.1581 22.9357 45.4664 23.008 45.701 22.8624L45.1739 22.0126ZM42.4094 24.9041C42.644 24.7585 42.7163 24.4503 42.5707 24.2156C42.4252 23.981 42.1169 23.9087 41.8823 24.0543L42.4094 24.9041ZM38.5906 26.0959C38.3559 26.2415 38.2837 26.5497 38.4293 26.7844C38.5748 27.019 38.883 27.0913 39.1177 26.9457L38.5906 26.0959ZM35.826 28.9874C36.0607 28.8418 36.133 28.5336 35.9874 28.299C35.8418 28.0643 35.5336 27.992 35.299 28.1376L35.826 28.9874ZM32.0073 30.1793C31.7726 30.3248 31.7004 30.633 31.8459 30.8677C31.9915 31.1024 32.2997 31.1746 32.5344 31.0291L32.0073 30.1793ZM29.2427 33.0707C29.4774 32.9252 29.5496 32.617 29.4041 32.3823C29.2585 32.1476 28.9503 32.0754 28.7156 32.2209L29.2427 33.0707ZM25.4239 34.2626C25.1893 34.4082 25.117 34.7164 25.2626 34.951C25.4081 35.1857 25.7164 35.258 25.951 35.1124L25.4239 34.2626ZM22.6594 37.1541C22.894 37.0085 22.9663 36.7003 22.8207 36.4656C22.6752 36.231 22.3669 36.1587 22.1323 36.3043L22.6594 37.1541ZM18.8406 38.3459C18.6059 38.4915 18.5337 38.7997 18.6793 39.0344C18.8248 39.269 19.133 39.3413 19.3677 39.1957L18.8406 38.3459ZM16.0761 41.2374C16.3107 41.0918 16.383 40.7836 16.2374 40.5489C16.0919 40.3143 15.7836 40.242 15.549 40.3876L16.0761 41.2374ZM12.2573 42.4293C12.0226 42.5748 11.9504 42.883 12.0959 43.1177C12.2415 43.3524 12.5497 43.4246 12.7844 43.2791L12.2573 42.4293ZM9.49272 45.3207C9.72739 45.1752 9.79963 44.8669 9.65408 44.6323C9.50853 44.3976 9.20029 44.3254 8.96563 44.4709L9.49272 45.3207ZM5.67396 46.5126C5.43929 46.6581 5.36706 46.9664 5.51261 47.201C5.65816 47.4357 5.96639 47.5079 6.20106 47.3624L5.67396 46.5126ZM2.9094 49.4041C3.14406 49.2585 3.2163 48.9503 3.07075 48.7156C2.9252 48.4809 2.61696 48.4087 2.3823 48.5543L2.9094 49.4041ZM79.7365 0.575097L78.0906 1.59593L78.6177 2.44574L80.2635 1.4249L79.7365 0.575097ZM74.799 3.6376L71.5073 5.67926L72.0344 6.52907L75.326 4.4874L74.799 3.6376ZM68.2156 7.72093L64.924 9.7626L65.451 10.6124L68.7427 8.57074L68.2156 7.72093ZM61.6323 11.8043L58.3406 13.8459L58.8677 14.6957L62.1594 12.6541L61.6323 11.8043ZM55.049 15.8876L51.7573 17.9293L52.2844 18.7791L55.576 16.7374L55.049 15.8876ZM48.4656 19.9709L45.1739 22.0126L45.701 22.8624L48.9927 20.8207L48.4656 19.9709ZM41.8823 24.0543L38.5906 26.0959L39.1177 26.9457L42.4094 24.9041L41.8823 24.0543ZM35.299 28.1376L32.0073 30.1793L32.5344 31.0291L35.826 28.9874L35.299 28.1376ZM28.7156 32.2209L25.4239 34.2626L25.951 35.1124L29.2427 33.0707L28.7156 32.2209ZM22.1323 36.3043L18.8406 38.3459L19.3677 39.1957L22.6594 37.1541L22.1323 36.3043ZM15.549 40.3876L12.2573 42.4293L12.7844 43.2791L16.0761 41.2374L15.549 40.3876ZM8.96563 44.4709L5.67396 46.5126L6.20106 47.3624L9.49272 45.3207L8.96563 44.4709ZM2.3823 48.5543L0.736449 49.5751L1.26354 50.4249L2.9094 49.4041L2.3823 48.5543Z" fill="url(#paint0_linear_54_292)"/>
<defs>
<linearGradient id="paint0_linear_54_292" x1="71" y1="4.99998" x2="14" y2="42" gradientUnits="userSpaceOnUse">
<stop stop-color="#FFD66B"/>
<stop offset="1"/>
</linearGradient>
</defs>
</svg>
