<svg width="3" height="11" viewBox="0 0 3 11" fill="none" xmlns="http://www.w3.org/2000/svg">
<path fill-rule="evenodd" clip-rule="evenodd" d="M2.96876 1.25562C2.96876 1.94908 2.4066 2.51124 1.71314 2.51124C1.01968 2.51124 0.45752 1.94908 0.45752 1.25562C0.45752 0.56216 1.01968 0 1.71314 0C2.4066 0 2.96876 0.56216 2.96876 1.25562ZM2.96876 5.4686C2.96876 6.16206 2.4066 6.72422 1.71314 6.72422C1.01968 6.72422 0.45752 6.16206 0.45752 5.4686C0.45752 4.77514 1.01968 4.21298 1.71314 4.21298C2.4066 4.21298 2.96876 4.77514 2.96876 5.4686ZM1.71314 10.9371C2.4066 10.9371 2.96876 10.3749 2.96876 9.68143C2.96876 8.98798 2.4066 8.42581 1.71314 8.42581C1.01968 8.42581 0.45752 8.98798 0.45752 9.68143C0.45752 10.3749 1.01968 10.9371 1.71314 10.9371Z" fill="#DFE6EF"/>
</svg>
