<svg width="64" height="64" viewBox="0 0 64 64" fill="none" xmlns="http://www.w3.org/2000/svg">
<rect opacity="0.1" width="63.2504" height="63.2504" rx="31.6252" fill="#2DA9DF"/>
<path fill-rule="evenodd" clip-rule="evenodd" d="M36.8476 25.3791C36.8811 25.3045 36.8967 25.2231 36.8934 25.1414H36.921C36.8031 22.3284 34.4805 20.1084 31.6553 20.1084C28.8302 20.1084 26.5076 22.3284 26.3897 25.1414C26.3758 25.22 26.3758 25.3005 26.3897 25.3791H26.3073C24.9564 25.3791 23.5123 26.2709 23.0931 28.6682L22.2732 35.1985C21.6024 39.9931 24.0713 41.1917 27.2949 41.1917H36.0339C39.2482 41.1917 41.6425 39.4561 41.0463 35.1985L40.2357 28.6682C39.7419 26.3381 38.3444 25.3791 37.0122 25.3791H36.8476ZM35.3325 25.3791C35.3032 25.3032 35.2877 25.2227 35.2867 25.1414C35.2867 23.12 33.6424 21.4813 31.614 21.4813C29.5857 21.4813 27.9414 23.12 27.9414 25.1414C27.9553 25.22 27.9553 25.3005 27.9414 25.3791H35.3325ZM28.5902 30.8074C28.0755 30.8074 27.6583 30.3779 27.6583 29.8482C27.6583 29.3185 28.0755 28.889 28.5902 28.889C29.1049 28.889 29.5221 29.3185 29.5221 29.8482C29.5221 30.3779 29.1049 30.8074 28.5902 30.8074ZM33.7607 29.8482C33.7607 30.3779 34.178 30.8074 34.6926 30.8074C35.2073 30.8074 35.6245 30.3779 35.6245 29.8482C35.6245 29.3185 35.2073 28.889 34.6926 28.889C34.178 28.889 33.7607 29.3185 33.7607 29.8482Z" fill="#2DA9DF"/>
</svg>
