<svg width="11" height="10" viewBox="0 0 11 10" fill="none" xmlns="http://www.w3.org/2000/svg">
<path fill-rule="evenodd" clip-rule="evenodd" d="M6.11831 0.198869L10.7852 4.51989C11.0716 4.78505 11.0716 5.21495 10.7852 5.48011L6.11831 9.80113C5.83192 10.0663 5.3676 10.0663 5.08122 9.80113C4.79483 9.53597 4.79483 9.10606 5.08122 8.8409L8.49624 5.67898L0.733334 5.67898C0.328325 5.67898 4.69897e-07 5.37499 4.37114e-07 5C4.04331e-07 4.62501 0.328325 4.32102 0.733334 4.32102L8.49624 4.32102L5.08122 1.1591C4.79483 0.893936 4.79483 0.464028 5.08122 0.198869C5.3676 -0.0662903 5.83192 -0.0662903 6.11831 0.198869Z" fill="#22215B"/>
</svg>
