<svg width="65" height="48" viewBox="0 0 65 48" fill="none" xmlns="http://www.w3.org/2000/svg">
<path d="M26.1829 0.828673C25.631 0.386287 24.9262 0.182574 24.2239 0.261925C23.5215 0.341873 22.8801 0.698383 22.4419 1.2527L12.6781 13.5104H3.31298C2.36485 13.5104 1.48901 14.0161 1.01524 14.8369C0.54147 15.6577 0.54147 16.6692 1.01524 17.49C1.48901 18.3108 2.36488 18.8166 3.31298 18.8166H6.60268L12.9701 42.1366C13.4297 43.8192 14.4288 45.3038 15.814 46.3633C17.1992 47.4227 18.894 47.9977 20.6375 48.0001H44.382C46.1261 47.9978 47.8211 47.4227 49.2061 46.3633C50.5912 45.3038 51.5904 43.8192 52.05 42.1366L58.3907 18.8166H61.6804C62.6286 18.8166 63.5044 18.3108 63.9782 17.49C64.4519 16.6692 64.4519 15.6577 63.9782 14.8369C63.5044 14.0161 62.6285 13.5104 61.6804 13.5104H52.2886L42.4988 1.2527C41.8959 0.547383 40.9679 0.207452 40.0523 0.357285C39.1361 0.507707 38.3651 1.12538 38.0193 1.98644C37.6728 2.84752 37.8019 3.82709 38.3598 4.56905L45.4965 13.5103H19.443L26.6064 4.54313C27.0405 3.99297 27.2394 3.29415 27.1595 2.59833C27.0801 1.90249 26.729 1.26644 26.1823 0.82878L26.1829 0.828673ZM46.9044 40.6253H46.9039C46.7487 41.2039 46.4017 41.7132 45.9202 42.0697C45.4381 42.4262 44.8501 42.6086 44.2507 42.5885H20.638C20.0393 42.6086 19.4513 42.4262 18.9692 42.0697C18.4877 41.7132 18.1407 41.2039 17.9849 40.6253L12.0953 18.8167H52.9001L46.9044 40.6253Z" fill="white"/>
<path fill-rule="evenodd" clip-rule="evenodd" d="M23.51 28.2662C24.19 27.5569 25.3025 27.5569 25.9828 28.2662L29.1765 31.5978C31.0496 30.0132 34.8231 26.9182 39.1337 23.3882C40.453 22.2985 41.6968 23.7286 40.545 24.9019L30.4128 35.4675C29.7251 36.1849 28.6348 36.17 27.9404 35.4675L23.5099 30.8461C22.83 30.1364 22.83 28.9761 23.5103 28.2665L23.51 28.2662Z" fill="white"/>
</svg>
