<svg width="17" height="18" viewBox="0 0 17 18" fill="none" xmlns="http://www.w3.org/2000/svg">
<path fill-rule="evenodd" clip-rule="evenodd" d="M12.0698 0.691756L12.0707 1.36642C14.5499 1.56072 16.1875 3.25007 16.1902 5.84078L16.2 13.424C16.2035 16.2486 14.429 17.9865 11.5846 17.991L4.63669 18C1.81007 18.0036 0.0133349 16.2243 0.00978053 13.3916L5.98477e-06 5.89745C-0.0035484 3.28965 1.57637 1.6048 4.05555 1.37721L4.05467 0.70255C4.05378 0.306748 4.34701 0.00899753 4.738 0.00899753C5.12898 0.00809798 5.42221 0.304949 5.4231 0.700751L5.42399 1.33044L10.7022 1.32324L10.7014 0.693555C10.7005 0.297753 10.9937 0.000901588 11.3847 2.03894e-06C11.7668 -0.000897511 12.0689 0.295954 12.0698 0.691756ZM1.36932 6.17543L14.8226 6.15744V5.8426C14.7844 3.90857 13.8141 2.89387 12.0724 2.74275L12.0733 3.4354C12.0733 3.82221 11.7721 4.12896 11.39 4.12896C10.999 4.12986 10.7049 3.82401 10.7049 3.4372L10.704 2.70857L5.42576 2.71576L5.42665 3.4435C5.42665 3.8312 5.1343 4.13705 4.74332 4.13705C4.35233 4.13795 4.05821 3.833 4.05821 3.4453L4.05732 2.75265C2.32456 2.92626 1.36577 3.94455 1.36843 5.89567L1.36932 6.17543ZM11.016 10.2639V10.2738C11.0249 10.6876 11.3625 11.0016 11.7722 10.9926C12.172 10.9827 12.4911 10.6399 12.4822 10.2261C12.4635 9.83034 12.1427 9.5074 11.7437 9.5083C11.335 9.5173 11.0151 9.85013 11.016 10.2639ZM11.7499 14.3029C11.3411 14.2939 11.0114 13.953 11.0106 13.5392C11.0017 13.1254 11.3296 12.7827 11.7383 12.7728H11.7472C12.1648 12.7728 12.5034 13.1137 12.5034 13.5365C12.5043 13.9593 12.1666 14.302 11.7499 14.3029ZM7.3549 10.2784C7.37267 10.6922 7.71123 11.0151 8.11998 10.9972C8.51985 10.9783 8.83886 10.6364 8.82108 10.2226C8.81131 9.81785 8.48253 9.50301 8.08266 9.50391C7.67391 9.5219 7.35401 9.86462 7.3549 10.2784ZM8.12361 14.2625C7.71485 14.2805 7.37719 13.9576 7.35853 13.5438C7.35853 13.13 7.67753 12.7882 8.08629 12.7693C8.48615 12.7684 8.81582 13.0832 8.82471 13.4871C8.84337 13.9018 8.52347 14.2436 8.12361 14.2625ZM3.69393 10.3098C3.7117 10.7236 4.05025 11.0475 4.45901 11.0286C4.85888 11.0106 5.17788 10.6679 5.15922 10.2541C5.15034 9.84927 4.82156 9.53443 4.4208 9.53533C4.01205 9.55332 3.69304 9.89605 3.69393 10.3098ZM4.4625 14.2668C4.05375 14.2857 3.71608 13.9619 3.69742 13.5481C3.69653 13.1343 4.01643 12.7916 4.42518 12.7736C4.82505 12.7727 5.15472 13.0875 5.1636 13.4923C5.18226 13.9061 4.86326 14.2488 4.4625 14.2668Z" fill="#364A87"/>
</svg>
