<svg width="26" height="26" viewBox="0 0 26 26" fill="none" xmlns="http://www.w3.org/2000/svg">
<g opacity="0.4">
<path fill-rule="evenodd" clip-rule="evenodd" d="M7.86947 2.10864H17.7144C21.2996 2.10864 23.3236 4.14214 23.3342 7.72738V17.5734C23.3342 21.1575 21.2996 23.1921 17.7144 23.1921H7.86947C4.28423 23.1921 2.25073 21.1575 2.25073 17.5734V7.72738C2.25073 4.14214 4.28423 2.10864 7.86947 2.10864ZM12.8441 18.8279C13.2984 18.8279 13.6769 18.4905 13.7191 18.0372V7.29521C13.7612 6.96842 13.6041 6.64057 13.3195 6.46242C13.0233 6.28321 12.6649 6.28321 12.3813 6.46242C12.0956 6.64057 11.9386 6.96842 11.9691 7.29521V18.0372C12.0229 18.4905 12.4013 18.8279 12.8441 18.8279ZM17.6943 18.8278C18.137 18.8278 18.5155 18.4905 18.5692 18.0372V14.5795C18.5998 14.2411 18.4427 13.9259 18.157 13.7467C17.8735 13.5675 17.515 13.5675 17.2199 13.7467C16.9342 13.9259 16.7771 14.2411 16.8193 14.5795V18.0372C16.8615 18.4905 17.2399 18.8278 17.6943 18.8278ZM8.80646 18.0372C8.7643 18.4905 8.38585 18.8278 7.9315 18.8278C7.47821 18.8278 7.0987 18.4905 7.05759 18.0372V10.7529C7.02597 10.425 7.18304 10.0993 7.46872 9.92007C7.75229 9.74087 8.11176 9.74087 8.39639 9.92007C8.67996 10.0993 8.83914 10.425 8.80646 10.7529V18.0372Z" fill="#030229"/>
</g>
</svg>
