<svg width="51" height="51" viewBox="0 0 51 51" fill="none" xmlns="http://www.w3.org/2000/svg">
<path d="M9.37837 0H41.6216C46.7735 0 51 4.22619 51 9.37837V41.6216C51 46.7734 46.7738 51 41.6216 51H9.37837C4.22655 51 0 46.7738 0 41.6216V9.37837C0 4.22655 4.22618 0 9.37837 0V0ZM41.6216 2.97543H9.37837C5.85123 2.97543 2.97607 5.85087 2.97607 9.37773V41.621C2.97607 45.1481 5.85151 48.0233 9.37837 48.0233H41.6216C45.1488 48.0233 48.0239 45.1479 48.0239 41.621V9.37773C48.0239 5.8506 45.1485 2.97543 41.6216 2.97543Z" fill="white"/>
<path fill-rule="evenodd" clip-rule="evenodd" d="M8.40235 23.1181C9.77159 21.7488 12.0121 21.7488 13.3821 23.1181L19.8135 29.5495C23.5854 26.4905 31.1845 20.5158 39.8652 13.7015C42.5219 11.598 45.0267 14.3586 42.7073 16.6236L22.3031 37.0196C20.9182 38.4045 18.7226 38.3757 17.3241 37.0196L8.40208 28.0983C7.03285 26.7283 7.03285 24.4886 8.40279 23.1186L8.40235 23.1181Z" fill="white"/>
</svg>
