<svg width="16" height="20" viewBox="0 0 16 20" fill="none" xmlns="http://www.w3.org/2000/svg">
<path fill-rule="evenodd" clip-rule="evenodd" d="M4.27556 0H11.7253C14.4711 0 16 1.7286 16 4.69054V14.7223C16 17.7327 14.4711 19.4225 11.7253 19.4225H4.27556C1.57333 19.4225 0 17.7327 0 14.7223V4.69054C0 1.7286 1.57333 0 4.27556 0ZM4.27803 4.02154C3.80548 4.02154 3.42241 4.40461 3.42241 4.87716C3.42241 5.3497 3.80548 5.73277 4.27803 5.73277H11.9786C12.4511 5.73277 12.8342 5.3497 12.8342 4.87716C12.8342 4.40461 12.4511 4.02154 11.9786 4.02154H4.27803ZM3.42241 10.0109C3.42241 9.53835 3.80548 9.15527 4.27803 9.15527H11.9786C12.4511 9.15527 12.8342 9.53835 12.8342 10.0109C12.8342 10.4834 12.4511 10.8665 11.9786 10.8665H4.27803C3.80548 10.8665 3.42241 10.4834 3.42241 10.0109ZM4.27803 14.289C3.80548 14.289 3.42241 14.6721 3.42241 15.1446C3.42241 15.6172 3.80548 16.0002 4.27803 16.0002H11.9786C12.4511 16.0002 12.8342 15.6172 12.8342 15.1446C12.8342 14.6721 12.4511 14.289 11.9786 14.289H4.27803Z" fill="#364A87"/>
</svg>
