<svg width="6" height="5" viewBox="0 0 6 5" fill="none" xmlns="http://www.w3.org/2000/svg">
<path d="M2.94414 4.2703C2.91928 4.24609 2.81299 4.15465 2.72556 4.06948C2.17571 3.57014 1.27571 2.26752 1.00099 1.58573C0.95685 1.48219 0.863422 1.22041 0.857422 1.08054C0.857422 0.946524 0.888279 0.818767 0.95085 0.696855C1.03828 0.544882 1.17585 0.42297 1.33828 0.356169C1.45099 0.313165 1.78828 0.246364 1.79428 0.246364C2.16328 0.179563 2.76285 0.142822 3.42542 0.142822C4.05671 0.142822 4.63185 0.179563 5.00642 0.234256C5.01242 0.240519 5.43156 0.30732 5.57514 0.380384C5.83742 0.514404 6.00028 0.776181 6.00028 1.05633V1.08054C5.99385 1.26299 5.83099 1.64668 5.82499 1.64668C5.54985 2.29173 4.69399 3.5643 4.12528 4.07574C4.12528 4.07574 3.97914 4.21978 3.88785 4.28241C3.75671 4.38011 3.59428 4.42854 3.43185 4.42854C3.25056 4.42854 3.08171 4.37384 2.94414 4.2703Z" fill="#030229"/>
</svg>
