<svg width="26" height="26" viewBox="0 0 26 26" fill="none" xmlns="http://www.w3.org/2000/svg">
<g opacity="0.4">
<path d="M17.004 1.30005H8.29709C5.13888 1.30005 3.30005 3.32035 3.30005 6.7821V18.5066C3.30005 22.0251 5.13888 24 8.29709 24H17.004C20.2131 24 22 22.0251 22 18.5066V6.7821C22 3.32035 20.2131 1.30005 17.004 1.30005Z" fill="#030229"/>
<rect x="7" y="5" width="11" height="1.5" rx="0.75" fill="white"/>
<path d="M9.39361 16.9354C10.1442 17.5783 10.8948 18.2212 11.6455 18.8642C12.0054 19.1724 12.5128 18.9089 12.7311 18.5438C13.7751 16.7981 14.8191 15.0524 15.8631 13.3066C16.4362 12.3483 15.0608 11.4555 14.4928 12.4053C13.4488 14.151 12.4048 15.8967 11.3608 17.6426C11.7228 17.5358 12.0846 17.429 12.4465 17.3222C11.6958 16.6794 10.9453 16.0364 10.1946 15.3935C9.84951 15.098 9.30759 15.3323 9.10895 15.7139C8.87023 16.1723 9.05012 16.6412 9.39355 16.9354L9.39361 16.9354Z" fill="white"/>
</g>
</svg>
