<svg width="16" height="16"  viewBox="0 0 16 16" fill="none" xmlns="http://www.w3.org/2000/svg">
<path d="M15.7802 5.02865C15.7709 4.9705 15.7615 4.91113 15.7518 4.84965L15.748 4.82688C15.6287 4.08432 15.2334 3.35002 14.6572 2.74785C14.0811 2.14568 13.3508 1.7089 12.6012 1.553C12.4196 1.5155 12.2181 1.47834 12.0033 1.44397C11.995 1.28148 11.9862 1.11889 11.9768 0.956187C11.9525 0.544056 11.6228 0.175006 11.2434 0.143752C10.8641 0.112503 10.5697 0.429667 10.5841 0.849255C10.5891 0.98741 10.594 1.12557 10.5988 1.26396C9.99539 1.20459 9.34891 1.16397 8.69986 1.14712C8.69863 1.02336 8.69752 0.899484 8.6964 0.775268C8.69149 0.350309 8.37934 0 7.9997 0C7.62005 0 7.30791 0.350309 7.30288 0.772811C7.30288 0.897799 7.30176 1.02178 7.29942 1.14466C6.64883 1.16151 5.99866 1.20247 5.39335 1.26217C5.39792 1.12402 5.40283 0.985747 5.40808 0.847269C5.42247 0.427881 5.12685 0.108284 4.74877 0.141966C4.37069 0.175669 4.03981 0.543813 4.01536 0.955944C4.0052 1.11876 3.99616 1.28148 3.98824 1.44395C3.77576 1.479 3.57768 1.51549 3.39855 1.55265C2.64863 1.70889 1.91935 2.14633 1.34218 2.7475C0.765123 3.34879 0.370389 4.08432 0.252344 4.82676C0.252344 4.83424 0.249889 4.84171 0.248884 4.8493C0.238841 4.9118 0.229466 4.9705 0.220093 5.02864C5.39959 4.64607 10.6005 4.64607 15.7803 5.02864L15.7802 5.02865Z" fill="#364A87"/>
<path d="M15.9262 6.10715C10.6536 5.87346 5.3461 5.87346 0.0734682 6.10715C0.0293868 6.56839 -0.00498431 7.15147 0.000595145 8.09098C0.02749 9.97429 0.159286 10.5905 0.313079 11.5024C0.313079 11.5098 0.315869 11.5177 0.317096 11.5251C0.449004 12.2713 0.853644 13.0165 1.43139 13.6334C2.00913 14.2502 2.73315 14.7014 3.47216 14.8692C4.55988 15.1217 6.3356 15.3314 8.00115 15.3242C9.66662 15.3314 11.4422 15.1218 12.5301 14.8692C13.2691 14.7014 13.9918 14.2483 14.5709 13.6334C15.1499 13.0185 15.5536 12.2714 15.6852 11.5251C15.6852 11.5173 15.6877 11.5098 15.6892 11.502C15.8417 10.5903 15.9736 9.97372 15.9994 8.09122C16.0048 7.15168 15.9704 6.5686 15.9265 6.10738L15.9262 6.10715ZM10.3348 9.84935L9.64734 10.7434C9.60147 10.8032 9.57759 10.8769 9.5796 10.9524L9.61085 12.0792C9.61364 12.1872 9.56319 12.2897 9.47581 12.3533C9.38843 12.417 9.27528 12.4335 9.17339 12.3975L8.11098 12.0203C8.04011 11.9956 7.963 11.9956 7.89225 12.0203L6.82984 12.3975C6.72784 12.4335 6.61479 12.417 6.52741 12.3533C6.44003 12.2897 6.38948 12.1872 6.39238 12.0792L6.42363 10.9524C6.42563 10.8769 6.40164 10.8032 6.35577 10.7434L5.66836 9.84935C5.60251 9.76354 5.5831 9.65071 5.61658 9.54781C5.65006 9.44481 5.73208 9.36502 5.83586 9.33444L6.91702 9.01481V9.0147C6.98933 8.99339 7.05205 8.94786 7.09479 8.8857L7.73256 7.9561C7.79382 7.86682 7.89515 7.81359 8.00351 7.81359C8.11176 7.81359 8.21309 7.86682 8.27436 7.9561L8.91212 8.8857C8.95487 8.94786 9.01758 8.99339 9.0899 9.0147L10.1711 9.33433V9.33444C10.2743 9.36591 10.3553 9.44615 10.388 9.54893C10.4207 9.65171 10.4008 9.76397 10.3348 9.84935H10.3348Z" fill="#364A87"/>
</svg>
