<svg width="661" height="148" viewBox="0 0 661 148" fill="none" xmlns="http://www.w3.org/2000/svg">
<mask id="mask0_3_1251" style="mask-type:alpha" maskUnits="userSpaceOnUse" x="0" y="0" width="661" height="148">
<rect width="661" height="148" rx="10.5417" fill="#FF8F6B"/>
</mask>
<g mask="url(#mask0_3_1251)">
<g opacity="0.15">
<path fill-rule="evenodd" clip-rule="evenodd" d="M741.789 -154.385H643.222L612.754 -60.3155L692.503 -2.18419L772.252 -60.3155L741.789 -154.385ZM605 -57.7893L638.429 -161H746.577L780 -57.7893L692.503 6L605 -57.7893Z" fill="white"/>
<path fill-rule="evenodd" clip-rule="evenodd" d="M747.522 -162.634H637.472L603.471 -57.7132L692.5 7.12384L781.529 -57.7132L747.522 -162.634ZM596 -55.2858L632.865 -169H752.129L789 -55.2858L692.5 15L596 -55.2858Z" fill="white"/>
<path fill-rule="evenodd" clip-rule="evenodd" d="M753.265 -170.884H631.735L594.176 -55.1158L692.497 16.432L790.824 -55.1158L753.265 -170.884ZM587 -52.7814L627.304 -177H757.701L798 -52.7814L692.497 24L587 -52.7814Z" fill="white"/>
<path fill-rule="evenodd" clip-rule="evenodd" d="M759.012 -179.139H625.994L584.88 -52.5068L692.497 25.7558L800.12 -52.5068L759.012 -179.139ZM578 -50.2765L621.739 -185H763.261L807 -50.2765L692.497 33L578 -50.2765Z" fill="white"/>
<path fill-rule="evenodd" clip-rule="evenodd" d="M764.749 -186.388H620.251L575.584 -48.9107L692.497 36.0625L809.416 -48.9107L764.749 -186.388ZM569 -46.7672L616.173 -192H768.821L816 -46.7672L692.497 43L569 -46.7672Z" fill="white"/>
<path fill-rule="evenodd" clip-rule="evenodd" d="M770.495 -194.648H614.511L566.297 -46.2996L692.5 45.3745L818.708 -46.2996L770.495 -194.648ZM560 -44.2543L610.616 -200H774.384L825 -44.2543L692.5 52L560 -44.2543Z" fill="white"/>
<path fill-rule="evenodd" clip-rule="evenodd" d="M776.235 -202.891H608.765L557 -43.6957L692.5 54.6865L828 -43.6957L776.235 -202.891ZM551 -41.7486L605.054 -208H779.946L834 -41.7486L692.5 61L551 -41.7486Z" fill="white"/>
<path fill-rule="evenodd" clip-rule="evenodd" d="M781.978 -211.145H603.016L547.702 -41.0997L692.5 63.9984L837.298 -41.0997L781.978 -211.145ZM542 -39.245L599.494 -216H785.5L843 -39.245L692.5 70L542 -39.245Z" fill="white"/>
<path fill-rule="evenodd" clip-rule="evenodd" d="M787.729 -219.41H597.282L538.414 -38.4966L692.5 73.3156L846.597 -38.4966L787.729 -219.41ZM533 -36.7344L593.938 -224H791.068L852 -36.7344L692.5 79L533 -36.7344Z" fill="white"/>
<path fill-rule="evenodd" clip-rule="evenodd" d="M793.465 -227.652H591.535L529.121 -35.8929L692.497 82.6271L855.879 -35.8929L793.465 -227.652ZM524 -34.2344L588.369 -232H796.631L861 -34.2344L692.497 88L524 -34.2344Z" fill="white"/>
<path fill-rule="evenodd" clip-rule="evenodd" d="M799.215 -235.906H585.791L519.822 -33.282L692.503 91.9442L865.183 -33.282L799.215 -235.906ZM516.206 -30.852L515 -31.7273L582.809 -240H802.203L870 -31.7273L692.503 97L516.206 -30.852Z" fill="white"/>
<path fill-rule="evenodd" clip-rule="evenodd" d="M804.949 -244.154H580.045L510.523 -30.6898L692.497 101.25L874.471 -30.6898L804.949 -244.154ZM506 -29.2158L577.241 -248H807.747L879 -29.2158L692.497 106L506 -29.2158Z" fill="white"/>
<path fill-rule="evenodd" clip-rule="evenodd" d="M810.7 -251.413H574.3L501.23 -27.0789L692.5 111.561L883.77 -27.0789L810.7 -251.413ZM497 -25.7144L571.68 -255H813.32L888 -25.7144L692.5 116L497 -25.7144Z" fill="white"/>
<path fill-rule="evenodd" clip-rule="evenodd" d="M816.639 -259.667H569.361L492.932 -24.4776L692.997 120.872L893.068 -24.4776L816.639 -259.667ZM489 -23.2051L566.937 -263H819.063L897 -23.2051L692.997 125L489 -23.2051Z" fill="white"/>
<path fill-rule="evenodd" clip-rule="evenodd" d="M822.382 -267.909H563.612L483.628 -21.8795L692.997 130.183L902.372 -21.8795L822.382 -267.909ZM480.904 -20.0374L480 -20.6994L561.378 -271H824.628L906 -20.6994L692.997 134L480.904 -20.0374Z" fill="white"/>
<path fill-rule="evenodd" clip-rule="evenodd" d="M828.124 -276.168H557.876L474.346 -19.2767L693 139.494L911.66 -19.2767L828.124 -276.168ZM471 -18.1945L555.814 -279H830.191L915 -18.1945L693 143L471 -18.1945Z" fill="white"/>
<path fill-rule="evenodd" clip-rule="evenodd" d="M920.958 -16.6695L833.873 -284.415H552.133L465.042 -16.6695L693 148.811L920.958 -16.6695ZM462.76 -15.1268L462 -15.6794L549.955 -286.108L550.249 -287H835.751L924 -15.6794L693.76 151.453L693 152L462.76 -15.1268Z" fill="white"/>
<path fill-rule="evenodd" clip-rule="evenodd" d="M839.618 -292.669H546.382L455.748 -14.0739L693.003 158.116L930.252 -14.0739L839.618 -292.669ZM453 -13.1759L544.688 -295H841.312L933 -13.1759L693.003 161L453 -13.1759Z" fill="white"/>
<path fill-rule="evenodd" clip-rule="evenodd" d="M845.357 -300.922H540.637L446.443 -11.4608L693 167.433L939.551 -11.4608L845.357 -300.922ZM444.611 -10.2234L444 -10.6608L538.885 -302.281L539.121 -303H846.879L941.764 -11.3803L942 -10.6608L693 170L444.611 -10.2234Z" fill="white"/>
<path fill-rule="evenodd" clip-rule="evenodd" d="M851.108 -308.176H534.892L437.15 -7.86517L692.997 177.738L948.85 -7.86517L851.108 -308.176ZM435.536 -6.7774L435 -7.16876L533.353 -309.367L533.566 -310H852.434L950.798 -7.80188L951 -7.16876L692.997 180L435.536 -6.7774Z" fill="white"/>
<path fill-rule="evenodd" clip-rule="evenodd" d="M958.132 -5.25937L856.85 -316.412H529.156L427.868 -5.25937L693 187.049L958.132 -5.25937ZM426.473 -4.32126L426 -4.66083L527.83 -317.448L528.009 -318H857.997L959.821 -5.20755L960 -4.66083L693.467 188.655L693 189L426.473 -4.32126Z" fill="white"/>
<path fill-rule="evenodd" clip-rule="evenodd" d="M862.595 -324.671H523.405L418.562 -2.65659L692.997 196.366L967.432 -2.65659L862.595 -324.671ZM417.386 -1.8624L417 -2.15015L522.292 -325.534L522.436 -326H863.558L968.856 -2.6048L969 -2.15015L692.997 198L417.386 -1.8624Z" fill="white"/>
<path fill-rule="evenodd" clip-rule="evenodd" d="M976.732 -0.053009L868.341 -332.924H517.665L409.269 -0.053009L693 205.665L976.732 -0.053009ZM408.323 0.585785L408 0.349823L516.76 -333.632L516.881 -334H869.125L977.879 -0.0184631L978 0.349823L693.323 206.764L693 207L408.323 0.585785Z" fill="white"/>
<path fill-rule="evenodd" clip-rule="evenodd" d="M986.02 3.16144L874.081 -341.181H511.919L399.975 3.16144L692.994 215.974L986.02 3.16144ZM399.248 3.65149L399 3.47852L511.319 -342H874.681L987 3.47852L693.236 216.821L692.994 217L399.248 3.65149Z" fill="white"/>
<path fill-rule="evenodd" clip-rule="evenodd" d="M505.753 -350L505.69 -349.798L390 5.98071L390.173 6.10751L693 226L693.167 225.873L996 5.98071L995.942 5.7847L880.253 -350H505.753ZM390.675 5.76178L506.18 -349.429H879.826L995.325 5.76178L693 225.28L390.675 5.76178Z" fill="white"/>
</g>
</g>
</svg>
