<svg width="19" height="18" viewBox="0 0 19 18" fill="none" xmlns="http://www.w3.org/2000/svg">
<path fill-rule="evenodd" clip-rule="evenodd" d="M6.9354 8.22407C6.55106 8.22407 6.24717 8.52275 6.24717 8.9005C6.24717 9.26946 6.55106 9.57692 6.9354 9.57692H12.2982V13.776C12.2982 15.9283 10.5195 17.6853 8.32079 17.6853H3.96798C1.77817 17.6853 -0.000488281 15.9371 -0.000488281 13.7848V4.02495C-0.000488281 1.86389 1.78711 0.115723 3.97692 0.115723H8.33866C10.5195 0.115723 12.2982 1.86389 12.2982 4.01616V8.22407H6.9354ZM15.4873 5.86098L18.0524 8.41735C18.1842 8.54912 18.2545 8.71603 18.2545 8.90051C18.2545 9.07621 18.1842 9.25191 18.0524 9.37489L15.4873 11.9313C15.3555 12.063 15.1798 12.1333 15.0129 12.1333C14.8372 12.1333 14.6615 12.063 14.5297 11.9313C14.2662 11.6677 14.2662 11.2373 14.5297 10.9737L15.9353 9.57694H12.2984V8.22409H15.9353L14.5297 6.82731C14.2662 6.56377 14.2662 6.13331 14.5297 5.86977C14.7933 5.59744 15.2237 5.59744 15.4873 5.86098Z" fill="#030229"/>
</svg>
