<svg width="22" height="22" viewBox="0 0 22 22" fill="none" xmlns="http://www.w3.org/2000/svg">
<path fill-rule="evenodd" clip-rule="evenodd" d="M2.92765 0.509521H6.49075C7.97714 0.509521 9.16835 1.72182 9.16835 3.20926V6.80293C9.16835 8.29986 7.97714 9.50162 6.49075 9.50162H2.92765C1.45181 9.50162 0.250049 8.29986 0.250049 6.80293V3.20926C0.250049 1.72182 1.45181 0.509521 2.92765 0.509521ZM2.9276 12.6006H6.4907C7.97709 12.6006 9.1683 13.8035 9.1683 15.3004V18.8941C9.1683 20.3804 7.97709 21.5927 6.4907 21.5927H2.9276C1.45176 21.5927 0.25 20.3804 0.25 18.8941V15.3004C0.25 13.8035 1.45176 12.6006 2.9276 12.6006ZM18.656 0.509577H15.0929C13.6065 0.509577 12.4153 1.72188 12.4153 3.20931V6.80299C12.4153 8.29991 13.6065 9.50167 15.0929 9.50167H18.656C20.1319 9.50167 21.3336 8.29991 21.3336 6.80299V3.20931C21.3336 1.72188 20.1319 0.509577 18.656 0.509577ZM15.0929 12.6006H18.656C20.1319 12.6006 21.3336 13.8035 21.3336 15.3004V18.8941C21.3336 20.3804 20.1319 21.5927 18.656 21.5927H15.0929C13.6065 21.5927 12.4153 20.3804 12.4153 18.8941V15.3004C12.4153 13.8035 13.6065 12.6006 15.0929 12.6006Z" fill="#2DAAE2"/>
</svg>
