<svg width="26" height="26" viewBox="0 0 26 26" fill="none" xmlns="http://www.w3.org/2000/svg">
<g opacity="0.4">
<path fill-rule="evenodd" clip-rule="evenodd" d="M19.8624 9.2729C19.8624 10.5969 20.2124 11.3772 20.9824 12.2765C21.566 12.939 21.7525 13.7895 21.7525 14.7121C21.7525 15.6337 21.4497 16.5085 20.8431 17.2188C20.0489 18.0703 18.9289 18.6139 17.7859 18.7084C16.1295 18.8496 14.472 18.9686 12.7925 18.9686C11.112 18.9686 9.45561 18.8974 7.79919 18.7084C6.6551 18.6139 5.53511 18.0703 4.742 17.2188C4.13538 16.5085 3.83154 15.6337 3.83154 14.7121C3.83154 13.7895 4.01908 12.939 4.6016 12.2765C5.39576 11.3772 5.72264 10.5969 5.72264 9.2729V8.8238C5.72264 7.05072 6.16477 5.89132 7.07523 4.75634C8.42886 3.10111 10.5986 2.1084 12.7454 2.1084H12.8397C15.0325 2.1084 17.2725 3.14889 18.6031 4.87525C19.4664 5.98687 19.8624 7.09743 19.8624 8.8238V9.2729ZM9.70724 21.1476C9.70724 20.6167 10.1944 20.3736 10.6449 20.2695C11.1719 20.158 14.3831 20.158 14.9101 20.2695C15.3606 20.3736 15.8478 20.6167 15.8478 21.1476C15.8216 21.6529 15.5251 22.101 15.1155 22.3855C14.5843 22.7996 13.9609 23.0619 13.3092 23.1563C12.9488 23.2031 12.5947 23.2041 12.2469 23.1563C11.5941 23.0619 10.9708 22.7996 10.4406 22.3845C10.0299 22.101 9.73343 21.6529 9.70724 21.1476Z" fill="#030229"/>
</g>
</svg>
