<svg width="51" height="51" viewBox="0 0 51 51" fill="none" xmlns="http://www.w3.org/2000/svg">
<path d="M13.8676 9.62999C16.3654 7.79369 19.3081 6.52982 22.5045 6.03965V0C17.6588 0.563189 13.2265 2.47573 9.58887 5.3518L13.8676 9.62999Z" fill="white"/>
<path d="M6.03965 22.5039C6.53029 19.3076 7.79369 16.3648 9.62999 13.8671L5.3518 9.58887C2.47573 13.2269 0.563079 17.6582 0 22.5045L6.03965 22.5039Z" fill="white"/>
<path d="M45.5613 10.8872C47.887 14.0739 49.4149 17.7599 50.0199 21.6479H45.6833C45.1593 18.9105 44.0646 16.2789 42.4885 13.9611L45.5613 10.8872ZM45.6483 9.58838L41.3701 13.8671C43.207 16.3649 44.4703 19.3088 44.9605 22.5051H51.0001C50.4369 17.6584 48.5249 13.226 45.6483 9.58838Z" fill="white"/>
<path d="M29.3524 0.980683C33.2405 1.5874 36.9264 3.11579 40.1126 5.44047L37.0376 8.51436C34.7203 6.93601 32.0898 5.8419 29.3513 5.31899V0.980683H29.3524ZM28.4963 0.000488281V6.04014C31.6927 6.53078 34.6366 7.79418 37.1343 9.63048L41.4125 5.35228C37.7744 2.47567 33.342 0.563567 28.4963 0.000488281Z" fill="white"/>
<path d="M50.0199 29.3522C49.4148 33.2402 47.887 36.9262 45.5612 40.1123L42.4862 37.0373C44.0646 34.7201 45.1576 32.0896 45.6816 29.3511H50.0199V29.3522ZM51.0001 28.4961H44.9605C44.4709 31.6924 43.2064 34.6363 41.3701 37.1341L45.6483 41.4122C48.5249 37.7742 50.437 33.3418 51.0001 28.4961Z" fill="white"/>
<path d="M37.0384 42.4864L40.1134 45.5614C36.9267 47.8872 33.2413 49.415 29.3533 50.0201V45.6834C32.0897 45.1584 34.7202 44.0653 37.0384 42.4865V42.4864ZM37.1341 41.3704C34.6363 43.2072 31.6935 44.4705 28.4961 44.9607V51.0003C33.3418 50.4372 37.774 48.5246 41.4122 45.6486L37.1341 41.3704Z" fill="white"/>
<path d="M9.63023 37.1345C7.79393 34.6368 6.53007 31.694 6.0399 28.4966H0.000244141C0.563433 33.3423 2.47598 37.7745 5.35204 41.4127L9.63023 37.1345Z" fill="white"/>
<path d="M13.961 42.486C16.2793 44.0644 18.9104 45.1574 21.6477 45.6814V50.0186C17.7597 49.4119 14.0738 47.8835 10.8871 45.5599L13.961 42.486ZM13.8658 41.3699L9.58765 45.6481C13.2257 48.5241 17.657 50.4368 22.5032 50.9999V44.9602C19.3075 44.4706 16.3647 43.2067 13.8658 41.3699Z" fill="white"/>
</svg>
