<svg width="661" height="148" viewBox="0 0 661 148" fill="none" xmlns="http://www.w3.org/2000/svg">
<mask id="mask0_3_1453" style="mask-type:alpha" maskUnits="userSpaceOnUse" x="0" y="0" width="661" height="148">
<rect width="661" height="148" rx="10.5417" fill="#FF8F6B"/>
</mask>
<g mask="url(#mask0_3_1453)">
<g opacity="0.15">
<path fill-rule="evenodd" clip-rule="evenodd" d="M-38.7354 -43.8845H-160.265L-197.824 71.8842L-99.5029 143.432L-1.17584 71.8842L-38.7354 -43.8845ZM-205 74.2186L-164.696 -50H-34.2987L6 74.2186L-99.5029 151L-205 74.2186Z" fill="white"/>
<path fill-rule="evenodd" clip-rule="evenodd" d="M-32.9878 -52.1389H-166.006L-207.12 74.4932L-99.5029 152.756L8.11993 74.4932L-32.9878 -52.1389ZM-214 76.7235L-170.261 -58H-28.7389L15 76.7235L-99.5029 160L-214 76.7235Z" fill="white"/>
<path fill-rule="evenodd" clip-rule="evenodd" d="M-27.2512 -59.3878H-171.749L-216.416 78.0893L-99.5029 163.062L17.4165 78.0893L-27.2512 -59.3878ZM-223 80.2328L-175.827 -65H-23.179L24 80.2328L-99.5029 170L-223 80.2328Z" fill="white"/>
<path fill-rule="evenodd" clip-rule="evenodd" d="M-21.5049 -67.6477H-177.489L-225.703 80.7004L-99.5 172.374L26.7083 80.7004L-21.5049 -67.6477ZM-232 82.7457L-181.384 -73H-17.6158L33 82.7457L-99.5 179L-232 82.7457Z" fill="white"/>
<path fill-rule="evenodd" clip-rule="evenodd" d="M-15.7653 -75.8906H-183.235L-235 83.3043L-99.5 181.686L36.0004 83.3043L-15.7653 -75.8906ZM-241 85.2514L-186.946 -81H-12.0538L42 85.2514L-99.5 188L-241 85.2514Z" fill="white"/>
<path fill-rule="evenodd" clip-rule="evenodd" d="M-10.0221 -84.1445H-188.984L-244.298 85.9003L-99.5 190.998L45.2985 85.9003L-10.0221 -84.1445ZM-250 87.755L-192.506 -89H-6.49969L51 87.755L-99.5 197L-250 87.755Z" fill="white"/>
<path fill-rule="evenodd" clip-rule="evenodd" d="M-4.27054 -92.4097H-194.718L-253.586 88.5034L-99.5 200.316L54.597 88.5034L-4.27054 -92.4097ZM-259 90.2656L-198.062 -97H-0.931885L60 90.2656L-99.5 206L-259 90.2656Z" fill="white"/>
<path fill-rule="evenodd" clip-rule="evenodd" d="M1.46503 -100.652H-200.465L-262.879 91.1071L-99.5029 209.627L63.8786 91.1071L1.46503 -100.652ZM-268 92.7656L-203.631 -105H4.63129L69 92.7656L-99.5029 215L-268 92.7656Z" fill="white"/>
<path fill-rule="evenodd" clip-rule="evenodd" d="M7.2146 -108.906H-206.209L-272.178 93.718L-99.4971 218.944L73.1833 93.718L7.2146 -108.906ZM-275.794 96.148L-277 95.2727L-209.191 -113H10.2027L78 95.2727L-99.4971 224L-275.794 96.148Z" fill="white"/>
<path fill-rule="evenodd" clip-rule="evenodd" d="M12.9493 -117.154H-211.955L-281.477 96.3102L-99.5029 228.25L82.471 96.3102L12.9493 -117.154ZM-286 97.7842L-214.759 -121H15.7474L87 97.7842L-99.5029 233L-286 97.7842Z" fill="white"/>
<path fill-rule="evenodd" clip-rule="evenodd" d="M18.7002 -124.413H-217.7L-290.77 99.9211L-99.5 238.561L91.7703 99.9211L18.7002 -124.413ZM-295 101.286L-220.32 -128H21.3199L96 101.286L-99.5 243L-295 101.286Z" fill="white"/>
<path fill-rule="evenodd" clip-rule="evenodd" d="M24.6389 -132.667H-222.639L-299.068 102.522L-99.0029 247.872L101.068 102.522L24.6389 -132.667ZM-303 103.795L-225.063 -136H27.0626L105 103.795L-99.0029 252L-303 103.795Z" fill="white"/>
<path fill-rule="evenodd" clip-rule="evenodd" d="M30.3824 -140.909H-228.388L-308.372 105.121L-99.0029 257.183L110.372 105.121L30.3824 -140.909ZM-311.096 106.963L-312 106.301L-230.622 -144H32.6282L114 106.301L-99.0029 261L-311.096 106.963Z" fill="white"/>
<path fill-rule="evenodd" clip-rule="evenodd" d="M36.1237 -149.168H-234.124L-317.654 107.723L-99 266.494L119.66 107.723L36.1237 -149.168ZM-321 108.806L-236.186 -152H38.1913L123 108.806L-99 270L-321 108.806Z" fill="white"/>
<path fill-rule="evenodd" clip-rule="evenodd" d="M128.958 110.331L41.8732 -157.415H-239.867L-326.958 110.331L-99 275.811L128.958 110.331ZM-329.24 111.873L-330 111.321L-242.045 -159.108L-241.751 -160H43.7512L132 111.321L-98.2396 278.453L-99 279L-329.24 111.873Z" fill="white"/>
<path fill-rule="evenodd" clip-rule="evenodd" d="M47.6182 -165.669H-245.618L-336.252 112.926L-98.9971 285.116L138.252 112.926L47.6182 -165.669ZM-339 113.824L-247.312 -168H49.3121L141 113.824L-98.9971 288L-339 113.824Z" fill="white"/>
<path fill-rule="evenodd" clip-rule="evenodd" d="M53.3575 -173.922H-251.363L-345.557 115.539L-99 294.433L147.551 115.539L53.3575 -173.922ZM-347.389 116.777L-348 116.339L-253.115 -175.281L-252.879 -176H54.8789L149.764 115.62L150 116.339L-99 297L-347.389 116.777Z" fill="white"/>
<path fill-rule="evenodd" clip-rule="evenodd" d="M59.1084 -181.176H-257.108L-354.85 119.135L-99.0029 304.738L156.85 119.135L59.1084 -181.176ZM-356.464 120.223L-357 119.831L-258.647 -182.367L-258.434 -183H60.4341L158.798 119.198L159 119.831L-99.0029 307L-356.464 120.223Z" fill="white"/>
<path fill-rule="evenodd" clip-rule="evenodd" d="M166.132 121.741L64.8501 -189.412H-262.844L-364.132 121.741L-99 314.049L166.132 121.741ZM-365.527 122.679L-366 122.339L-264.17 -190.448L-263.991 -191H65.9972L167.821 121.792L168 122.339L-98.5331 315.655L-99 316L-365.527 122.679Z" fill="white"/>
<path fill-rule="evenodd" clip-rule="evenodd" d="M70.5954 -197.671H-268.595L-373.438 124.343L-99.0029 323.366L175.432 124.343L70.5954 -197.671ZM-374.614 125.138L-375 124.85L-269.708 -198.534L-269.564 -199H71.5582L176.856 124.395L177 124.85L-99.0029 325L-374.614 125.138Z" fill="white"/>
<path fill-rule="evenodd" clip-rule="evenodd" d="M184.732 126.947L76.3407 -205.924H-274.335L-382.731 126.947L-99 332.665L184.732 126.947ZM-383.677 127.586L-384 127.35L-275.24 -206.632L-275.119 -207H77.1249L185.879 126.982L186 127.35L-98.6771 333.764L-99 334L-383.677 127.586Z" fill="white"/>
<path fill-rule="evenodd" clip-rule="evenodd" d="M194.02 130.161L82.0815 -214.181H-280.081L-392.025 130.161L-99.0058 342.974L194.02 130.161ZM-392.752 130.651L-393 130.479L-280.681 -215H82.6812L195 130.479L-98.7635 343.821L-99.0058 344L-392.752 130.651Z" fill="white"/>
<path fill-rule="evenodd" clip-rule="evenodd" d="M-286.247 -223L-286.31 -222.798L-402 132.981L-401.827 133.108L-99 353L-98.8327 352.873L204 132.981L203.942 132.785L88.2526 -223H-286.247ZM-401.325 132.762L-285.82 -222.429H87.8258L203.325 132.762L-99 352.28L-401.325 132.762Z" fill="white"/>
</g>
</g>
</svg>
