<svg width="2" height="13" viewBox="0 0 2 13" fill="none" xmlns="http://www.w3.org/2000/svg">
<path d="M1.25 1C1.25 0.861929 1.13807 0.75 1 0.75C0.861929 0.75 0.75 0.861929 0.75 1L1.25 1ZM0.75 12C0.75 12.1381 0.861928 12.25 1 12.25C1.13807 12.25 1.25 12.1381 1.25 12L0.75 12ZM0.75 3.75C0.75 3.88807 0.861929 4 1 4C1.13807 4 1.25 3.88807 1.25 3.75L0.75 3.75ZM1.25 9.25C1.25 9.11193 1.13807 9 1 9C0.861928 9 0.75 9.11193 0.75 9.25L1.25 9.25ZM0.75 1L0.75 3.75L1.25 3.75L1.25 1L0.75 1ZM0.75 9.25L0.75 12L1.25 12L1.25 9.25L0.75 9.25ZM1.5 1C1.5 0.723858 1.27614 0.5 1 0.5C0.723858 0.5 0.5 0.723858 0.5 1L1.5 1ZM0.5 12C0.5 12.2761 0.723857 12.5 0.999999 12.5C1.27614 12.5 1.5 12.2761 1.5 12L0.5 12ZM0.5 3.75C0.5 4.02614 0.723857 4.25 1 4.25C1.27614 4.25 1.5 4.02614 1.5 3.75L0.5 3.75ZM1.5 9.25C1.5 8.97386 1.27614 8.75 1 8.75C0.723857 8.75 0.5 8.97386 0.5 9.25L1.5 9.25ZM0.5 1L0.5 3.75L1.5 3.75L1.5 1L0.5 1ZM0.5 9.25L0.5 12L1.5 12L1.5 9.25L0.5 9.25Z" fill="url(#paint0_linear_54_293)"/>
<defs>
<linearGradient id="paint0_linear_54_293" x1="1" y1="2.1" x2="1" y2="10.02" gradientUnits="userSpaceOnUse">
<stop stop-color="#C0BEFF"/>
<stop offset="1"/>
</linearGradient>
</defs>
</svg>
