<svg width="26" height="26" viewBox="0 0 26 26" fill="none" xmlns="http://www.w3.org/2000/svg">
<g opacity="0.4">
<path fill-rule="evenodd" clip-rule="evenodd" d="M21.6495 14.3157C22.0266 14.516 22.3174 14.8323 22.5221 15.1485C22.9207 15.8021 22.8884 16.6033 22.5006 17.3096L21.7465 18.5746C21.3479 19.2492 20.6045 19.6709 19.8396 19.6709C19.4626 19.6709 19.0424 19.5655 18.6977 19.3547C18.4176 19.1755 18.0944 19.1122 17.7496 19.1122C16.6831 19.1122 15.7889 19.9872 15.7566 21.0308C15.7566 22.2431 14.7654 23.1919 13.5265 23.1919H12.0614C10.8117 23.1919 9.82054 22.2431 9.82054 21.0308C9.79899 19.9872 8.90482 19.1122 7.83827 19.1122C7.48276 19.1122 7.15956 19.1755 6.89023 19.3547C6.54549 19.5655 6.11456 19.6709 5.74827 19.6709C4.9726 19.6709 4.22925 19.2492 3.83064 18.5746L3.08729 17.3096C2.68868 16.6244 2.66714 15.8021 3.06575 15.1485C3.23812 14.8323 3.56131 14.516 3.9276 14.3157C4.22925 14.1681 4.42317 13.9257 4.60631 13.641C5.14497 12.7345 4.82178 11.5432 3.90605 11.0056C2.83951 10.4047 2.49477 9.06594 3.10884 8.02231L3.83064 6.77838C4.45549 5.73475 5.79136 5.36579 6.86868 5.97721C7.80595 6.48322 9.02332 6.14588 9.57276 5.24983C9.74513 4.95466 9.84209 4.63841 9.82054 4.32216C9.79899 3.91103 9.9175 3.52099 10.1222 3.20474C10.5208 2.55115 11.2426 2.12948 12.029 2.1084H13.5481C14.3453 2.1084 15.0671 2.55115 15.4657 3.20474C15.6596 3.52099 15.7889 3.91103 15.7566 4.32216C15.735 4.63841 15.832 4.95466 16.0044 5.24983C16.5538 6.14588 17.7712 6.48322 18.7192 5.97721C19.7857 5.36579 21.1324 5.73475 21.7465 6.77838L22.4683 8.02231C23.0931 9.06594 22.7484 10.4047 21.6711 11.0056C20.7553 11.5432 20.4321 12.7345 20.9816 13.641C21.1539 13.9257 21.3479 14.1681 21.6495 14.3157ZM9.74516 12.6606C9.74516 14.3157 11.1134 15.6334 12.8047 15.6334C14.4961 15.6334 15.832 14.3157 15.832 12.6606C15.832 11.0056 14.4961 9.67732 12.8047 9.67732C11.1134 9.67732 9.74516 11.0056 9.74516 12.6606Z" fill="#030229"/>
</g>
</svg>
