<svg width="19" height="23" viewBox="0 0 19 23" fill="none" xmlns="http://www.w3.org/2000/svg">
<path fill-rule="evenodd" clip-rule="evenodd" d="M4.99704 0.299805H13.7039C16.9131 0.299805 18.7 2.3201 18.7 5.78185V17.5064C18.7 21.0249 16.9131 22.9998 13.7039 22.9998H4.99704C1.83883 22.9998 0 21.0249 0 17.5064V5.78185C0 2.3201 1.83883 0.299805 4.99704 0.299805ZM5 5C4.44772 5 4 5.44772 4 6C4 6.55228 4.44771 7 5 7H14C14.5523 7 15 6.55228 15 6C15 5.44772 14.5523 5 14 5H5ZM4 12C4 11.4477 4.44772 11 5 11H14C14.5523 11 15 11.4477 15 12C15 12.5523 14.5523 13 14 13H5C4.44771 13 4 12.5523 4 12ZM5 17C4.44772 17 4 17.4477 4 18C4 18.5523 4.44771 19 5 19H14C14.5523 19 15 18.5523 15 18C15 17.4477 14.5523 17 14 17H5Z" fill="#FF8F6B"/>
</svg>
