<svg width="27" height="41" viewBox="0 0 27 41" fill="none" xmlns="http://www.w3.org/2000/svg">
<g opacity="0.8" filter="url(#filter0_d_90_212)">
<rect x="7" y="7" width="11" height="11" rx="5.5" fill="white"/>
</g>
<path d="M11.9934 10.4212C12.277 9.92995 12.986 9.92995 13.2696 10.4212L15.184 13.737C15.4676 14.2282 15.1131 14.8422 14.5458 14.8422H10.7171C10.1499 14.8422 9.79537 14.2282 10.079 13.737L11.9934 10.4212Z" fill="#22215B"/>
<g opacity="0.8" filter="url(#filter1_d_90_212)">
<rect x="18" y="32" width="11" height="11" rx="5.5" transform="rotate(180 18 32)" fill="white"/>
</g>
<path d="M13.2698 28.842C12.9862 29.3332 12.2772 29.3332 11.9936 28.842L10.0792 25.5262C9.7956 25.035 10.1501 24.421 10.7173 24.421L14.5461 24.421C15.1133 24.421 15.4678 25.035 15.1842 25.5262L13.2698 28.842Z" fill="#22215B"/>
<defs>
<filter id="filter0_d_90_212" x="0.368421" y="0.368421" width="25.7368" height="25.7368" filterUnits="userSpaceOnUse" color-interpolation-filters="sRGB">
<feFlood flood-opacity="0" result="BackgroundImageFix"/>
<feColorMatrix in="SourceAlpha" type="matrix" values="0 0 0 0 0 0 0 0 0 0 0 0 0 0 0 0 0 0 127 0" result="hardAlpha"/>
<feOffset dx="0.736842" dy="0.736842"/>
<feGaussianBlur stdDeviation="3.68421"/>
<feColorMatrix type="matrix" values="0 0 0 0 0.0117647 0 0 0 0 0.00784314 0 0 0 0 0.160784 0 0 0 0.07 0"/>
<feBlend mode="normal" in2="BackgroundImageFix" result="effect1_dropShadow_90_212"/>
<feBlend mode="normal" in="SourceGraphic" in2="effect1_dropShadow_90_212" result="shape"/>
</filter>
<filter id="filter1_d_90_212" x="0.368421" y="14.3684" width="25.7368" height="25.7368" filterUnits="userSpaceOnUse" color-interpolation-filters="sRGB">
<feFlood flood-opacity="0" result="BackgroundImageFix"/>
<feColorMatrix in="SourceAlpha" type="matrix" values="0 0 0 0 0 0 0 0 0 0 0 0 0 0 0 0 0 0 127 0" result="hardAlpha"/>
<feOffset dx="0.736842" dy="0.736842"/>
<feGaussianBlur stdDeviation="3.68421"/>
<feColorMatrix type="matrix" values="0 0 0 0 0.0117647 0 0 0 0 0.00784314 0 0 0 0 0.160784 0 0 0 0.07 0"/>
<feBlend mode="normal" in2="BackgroundImageFix" result="effect1_dropShadow_90_212"/>
<feBlend mode="normal" in="SourceGraphic" in2="effect1_dropShadow_90_212" result="shape"/>
</filter>
</defs>
</svg>
