<svg width="20" height="22" viewBox="0 0 20 22" fill="none" xmlns="http://www.w3.org/2000/svg">
<path fill-rule="evenodd" clip-rule="evenodd" d="M14.8476 5.37914C14.8811 5.30446 14.8967 5.22308 14.8934 5.14136H14.921C14.8031 2.32839 12.4805 0.108398 9.65534 0.108398C6.83021 0.108398 4.50758 2.32839 4.38968 5.14136C4.37579 5.22001 4.37579 5.30048 4.38966 5.37914H4.3073C2.95639 5.37914 1.5123 6.27093 1.09305 8.66823L0.273185 15.1985C-0.397615 19.9931 2.0713 21.1917 5.29487 21.1917H14.0339C17.2482 21.1917 19.6425 19.4561 19.0463 15.1985L18.2357 8.66823C17.7419 6.33806 16.3444 5.37914 15.0122 5.37914H14.8476ZM13.3325 5.37914C13.3032 5.30321 13.2877 5.2227 13.2867 5.14136C13.2867 3.11999 11.6424 1.48134 9.61402 1.48134C7.58567 1.48134 5.94138 3.11999 5.94138 5.14136C5.95527 5.22001 5.95527 5.30048 5.9414 5.37914H13.3325ZM6.59022 10.8074C6.07554 10.8074 5.65832 10.3779 5.65832 9.84821C5.65832 9.31848 6.07554 8.88905 6.59022 8.88905C7.1049 8.88905 7.52213 9.31848 7.52213 9.84821C7.52213 10.3779 7.1049 10.8074 6.59022 10.8074ZM11.7607 9.84821C11.7607 10.3779 12.178 10.8074 12.6926 10.8074C13.2073 10.8074 13.6245 10.3779 13.6245 9.84821C13.6245 9.31848 13.2073 8.88905 12.6926 8.88905C12.178 8.88905 11.7607 9.31848 11.7607 9.84821Z" fill="#2DA9DF"/>
</svg>
