<svg width="661" height="148" viewBox="0 0 661 148" fill="none" xmlns="http://www.w3.org/2000/svg">
<mask id="mask0_3_1352" style="mask-type:alpha" maskUnits="userSpaceOnUse" x="0" y="0" width="661" height="148">
<rect width="661" height="148" rx="10.5417" fill="#FF8F6B"/>
</mask>
<g mask="url(#mask0_3_1352)">
<g opacity="0.15">
<path fill-rule="evenodd" clip-rule="evenodd" d="M234.495 147.352H78.5107L30.2975 295.7L156.5 387.374L282.708 295.7L234.495 147.352ZM24 297.746L74.6158 142H238.384L289 297.746L156.5 394L24 297.746Z" fill="white"/>
<path fill-rule="evenodd" clip-rule="evenodd" d="M240.235 139.109H72.7653L20.9996 298.304L156.5 396.686L292 298.304L240.235 139.109ZM15 300.251L69.0538 134H243.946L298 300.251L156.5 403L15 300.251Z" fill="white"/>
<path fill-rule="evenodd" clip-rule="evenodd" d="M245.978 130.855H67.0163L11.7015 300.9L156.5 405.998L301.298 300.9L245.978 130.855ZM6 302.755L63.4939 126H249.5L307 302.755L156.5 412L6 302.755Z" fill="white"/>
<path fill-rule="evenodd" clip-rule="evenodd" d="M251.729 122.59H61.282L2.41449 303.503L156.5 415.316L310.597 303.503L251.729 122.59ZM-3 305.266L57.9376 118H255.068L316 305.266L156.5 421L-3 305.266Z" fill="white"/>
<path fill-rule="evenodd" clip-rule="evenodd" d="M257.465 114.348H55.535L-6.87865 306.107L156.497 424.627L319.879 306.107L257.465 114.348ZM-12 307.766L52.3687 110H260.631L325 307.766L156.497 430L-12 307.766Z" fill="white"/>
<path fill-rule="evenodd" clip-rule="evenodd" d="M263.215 106.094H49.7912L-16.1775 308.718L156.503 433.944L329.183 308.718L263.215 106.094ZM-19.7944 311.148L-21 310.273L46.8089 102H266.203L334 310.273L156.503 439L-19.7944 311.148Z" fill="white"/>
<path fill-rule="evenodd" clip-rule="evenodd" d="M268.949 97.8462H44.045L-25.4768 311.31L156.497 443.25L338.471 311.31L268.949 97.8462ZM-30 312.784L41.241 94H271.747L343 312.784L156.497 448L-30 312.784Z" fill="white"/>
<path fill-rule="evenodd" clip-rule="evenodd" d="M274.7 90.5869H38.2998L-34.7703 314.921L156.5 453.561L347.77 314.921L274.7 90.5869ZM-39 316.286L35.6801 87H277.32L352 316.286L156.5 458L-39 316.286Z" fill="white"/>
<path fill-rule="evenodd" clip-rule="evenodd" d="M280.639 82.3333H33.3611L-43.068 317.522L156.997 462.872L357.068 317.522L280.639 82.3333ZM-47 318.795L30.9374 79H283.063L361 318.795L156.997 467L-47 318.795Z" fill="white"/>
<path fill-rule="evenodd" clip-rule="evenodd" d="M286.382 74.0913H27.6118L-52.3722 320.121L156.997 472.183L366.372 320.121L286.382 74.0913ZM-55.0959 321.963L-56 321.301L25.3776 71H288.628L370 321.301L156.997 476L-55.0959 321.963Z" fill="white"/>
<path fill-rule="evenodd" clip-rule="evenodd" d="M292.124 65.8322H21.8763L-61.6537 322.723L157 481.494L375.66 322.723L292.124 65.8322ZM-65 323.806L19.8144 63H294.191L379 323.806L157 485L-65 323.806Z" fill="white"/>
<path fill-rule="evenodd" clip-rule="evenodd" d="M384.958 325.331L297.873 57.5846H16.1326L-70.9583 325.331L157 490.811L384.958 325.331ZM-73.2396 326.873L-74 326.321L13.955 55.8922L14.2488 55H299.751L388 326.321L157.76 493.453L157 494L-73.2396 326.873Z" fill="white"/>
<path fill-rule="evenodd" clip-rule="evenodd" d="M303.618 49.3311H10.3819L-80.2516 327.926L157.003 500.116L394.252 327.926L303.618 49.3311ZM-83 328.824L8.68785 47H305.312L397 328.824L157.003 503L-83 328.824Z" fill="white"/>
<path fill-rule="evenodd" clip-rule="evenodd" d="M309.357 41.0778H4.63676L-89.5566 330.539L157 509.433L403.551 330.539L309.357 41.0778ZM-91.3891 331.777L-92 331.339L2.88486 39.7195L3.12113 39H310.879L405.764 330.62L406 331.339L157 512L-91.3891 331.777Z" fill="white"/>
<path fill-rule="evenodd" clip-rule="evenodd" d="M315.108 33.8245H-1.1084L-98.8501 334.135L156.997 519.738L412.85 334.135L315.108 33.8245ZM-100.464 335.223L-101 334.831L-2.64732 32.6331L-2.43406 32H316.434L414.798 334.198L415 334.831L156.997 522L-100.464 335.223Z" fill="white"/>
<path fill-rule="evenodd" clip-rule="evenodd" d="M422.132 336.741L320.85 25.5884H-6.84431L-108.132 336.741L157 529.049L422.132 336.741ZM-109.527 337.679L-110 337.339L-8.17015 24.5525L-7.99145 24H321.997L423.821 336.792L424 337.339L157.467 530.655L157 531L-109.527 337.679Z" fill="white"/>
<path fill-rule="evenodd" clip-rule="evenodd" d="M326.595 17.3294H-12.5954L-117.438 339.343L156.997 538.366L431.432 339.343L326.595 17.3294ZM-118.614 340.138L-119 339.85L-13.7081 16.4662L-13.5639 16H327.558L432.856 339.395L433 339.85L156.997 540L-118.614 340.138Z" fill="white"/>
<path fill-rule="evenodd" clip-rule="evenodd" d="M440.732 341.947L332.341 9.07615H-18.3349L-126.731 341.947L157 547.665L440.732 341.947ZM-127.677 342.586L-128 342.35L-19.2402 8.36831L-19.1191 8H333.125L441.879 341.982L442 342.35L157.323 548.764L157 549L-127.677 342.586Z" fill="white"/>
<path fill-rule="evenodd" clip-rule="evenodd" d="M450.02 345.161L338.081 0.818642H-24.0814L-136.025 345.161L156.994 557.974L450.02 345.161ZM-136.752 345.651L-137 345.479L-24.6812 0H338.681L451 345.479L157.236 558.821L156.994 559L-136.752 345.651Z" fill="white"/>
<path fill-rule="evenodd" clip-rule="evenodd" d="M-30.2468 -8L-30.3102 -7.79824L-146 347.981L-145.827 348.108L157 568L157.167 567.873L460 347.981L459.942 347.785L344.253 -8H-30.2468ZM-145.325 347.762L-29.82 -7.4292H343.826L459.325 347.762L157 567.28L-145.325 347.762Z" fill="white"/>
</g>
</g>
</svg>
