<svg width="12" height="14" viewBox="0 0 12 14" fill="none" xmlns="http://www.w3.org/2000/svg">
<path d="M5.88 0L2.8 0.000125V1.68H1.4C1.02886 1.68037 0.672992 1.82812 0.410496 2.09049C0.148122 2.35299 0.000384 2.70886 0 3.08V14H11.76V3.08C11.7596 2.70886 11.6119 2.35299 11.3495 2.09049C11.087 1.82812 10.7311 1.68038 10.36 1.68H8.96V0.000125L5.88 0ZM5.54474 4.48H6.21536L7.25872 9.17504L5.87997 11.0134L4.50134 9.17504L5.54474 4.48ZM6.62435 3.20512L6.26685 3.92H5.49309L5.13571 3.20512L5.87997 2.83299L6.62435 3.20512ZM5.87997 0.56L7.66909 0.560125L5.87997 1.63337L4.09085 0.560125L5.87997 0.56Z" fill="#9A9AA9"/>
</svg>
