<svg width="21" height="18" viewBox="0 0 21 18" fill="none" xmlns="http://www.w3.org/2000/svg">
<path d="M16.7133 15.4284H17.9989V9.00026H19.2845V7.71468H18.5613V2.70071H17.2757V7.71468H15.4275V2.57178H10.2846V7.71468H9.26006V2.70071H7.97448V7.71468H6.42768V2.57178H2.57074V7.71468H1.28516V9.00026H2.57074V15.4284H6.42768V9.00026H7.71327V15.4284H8.99885V9.00026H10.2844V15.4284H15.4273V9.00026H16.7129V15.4284H16.7133ZM5.14231 14.1428H3.85673V8.99989H5.14231V14.1428ZM11.5704 3.8574H14.1418V7.71435H11.5704V3.8574Z" fill="#364A87"/>
<path d="M19.2852 14.1431V16.7144H16.7139V18H19.928C20.2815 18 20.5708 17.7107 20.5708 17.3572V14.1431H19.2852Z" fill="#364A87"/>
<path d="M19.2852 3.85744H20.5708V0.643299C20.5708 0.289776 20.2815 0.000488281 19.928 0.000488281H16.7139V1.28607H19.2852V3.85744Z" fill="#364A87"/>
<path d="M1.28558 1.28656H3.85695V0.000976562H0.642811C0.289288 0.000976562 0 0.290252 0 0.643788V3.85792H1.28558V1.28656Z" fill="#364A87"/>
<path d="M1.28558 14.1431H0V17.3572C0 17.7107 0.289275 18 0.642811 18H5.14269V16.7144H1.28575V14.1431H1.28558Z" fill="#364A87"/>
</svg>
