<svg width="19" height="10" viewBox="0 0 19 10" fill="none" xmlns="http://www.w3.org/2000/svg">
<path d="M3.39101 0C3.08228 0 2.83218 0.2506 2.83202 0.559946V1.97497H2.00017C1.85204 1.97497 1.70984 2.03403 1.60506 2.13902C1.50028 2.24401 1.44134 2.38634 1.44134 2.53492C1.44134 2.68349 1.50028 2.82582 1.60506 2.93081C1.70984 3.03596 1.85204 3.09486 2.00017 3.09486H2.83202V3.96322H0.558671H0.558827C0.250099 3.96322 0 4.21397 0 4.52316C0 4.83236 0.250099 5.08311 0.558827 5.08311H2.83217V8.29H2.83202C2.83217 8.59919 3.08227 8.84995 3.39101 8.84995H4.9471C5.2103 9.52129 5.86924 10 6.62905 10C7.38885 10 8.04795 9.52113 8.311 8.84995H13.7959C14.0591 9.52129 14.718 10 15.4778 10C16.2376 10 16.8967 9.52113 17.1598 8.84995H18.4412C18.7497 8.84995 19 8.59919 19 8.29V5.39388C19 5.30686 18.9797 5.22124 18.9409 5.14344L17.495 2.24732H17.4949C17.4002 2.05765 17.2067 1.93781 16.9951 1.93781H13.0732V0.559826V0.559982C13.0732 0.250636 12.8231 3.60073e-05 12.5144 3.60073e-05L3.39101 0ZM3.94983 1.11989H11.9558V7.73006H8.36836C8.15708 6.97029 7.45216 6.40814 6.62905 6.40814C5.80594 6.40814 5.10102 6.97013 4.88974 7.73006H3.94967V5.08311H6.81849L6.81833 5.08295C6.96661 5.08295 7.10866 5.0239 7.21344 4.91891C7.31838 4.81392 7.37716 4.67143 7.37716 4.52301C7.37716 4.37443 7.31838 4.2321 7.21344 4.12711C7.10866 4.02212 6.96661 3.96306 6.81833 3.96306H3.94952V3.09471H6.81833C6.96661 3.09471 7.10866 3.0358 7.21344 2.93066C7.31838 2.82567 7.37716 2.68334 7.37716 2.53476C7.37716 2.38618 7.31838 2.24385 7.21344 2.13886C7.10866 2.03387 6.96661 1.97481 6.81833 1.97481H3.94952L3.94983 1.11989ZM13.0735 3.05783H16.6501L17.537 4.83406H13.0735L13.0735 3.05783ZM13.0735 5.95395H17.8826V7.73018H17.2174C17.0061 6.97041 16.3012 6.40826 15.4781 6.40826C14.655 6.40826 13.9501 6.97025 13.7388 7.73018H13.0736L13.0735 5.95395ZM6.62901 7.52816C7.01757 7.52816 7.31537 7.82704 7.31537 8.20417C7.31537 8.58132 7.01756 8.88019 6.62901 8.88019C6.24046 8.88019 5.94265 8.58131 5.94265 8.20417C5.94265 7.82702 6.24046 7.52816 6.62901 7.52816ZM15.478 7.52816C15.8666 7.52816 16.1644 7.82704 16.1644 8.20417C16.1644 8.58132 15.8666 8.88019 15.478 8.88019C15.0895 8.88019 14.7917 8.58131 14.7917 8.20417C14.7917 7.82702 15.0895 7.52816 15.478 7.52816Z" fill="#9A9AA9"/>
</svg>
